#N canvas 245 135 590 545 10;
#X msg 299 376 60;
#X msg 358 374 64;
#X msg 399 393 67;
#X obj 170 68 t b b b;
#X obj 165 12 bng 15 250 50 0 empty empty empty 17 7 0 10 -262144 -1
-1;
#X msg 421 281 0;
#X obj 462 134 bng 15 250 50 0 empty empty empty 17 7 0 10 -262144
-1 -1;
#X obj 461 158 t b b b;
#X floatatom 538 181 5 0 0 0 - - -, f 5;
#X obj 494 215 /;
#X obj 495 250 i;
#X floatatom 544 279 5 0 0 0 - - -, f 5;
#X obj 462 314 metro;
#X obj 439 348 bng 15 250 50 0 empty empty empty 17 7 0 10 -262144
-1 -1;
#X floatatom 547 232 5 0 0 0 - - -, f 5;
#X msg 482 181 60000;
#X floatatom 54 216 5 0 0 0 - - -, f 5;
#X obj 302 516 noteout 3;
#X obj 76 146 notein 1;
#X msg 205 418 54;
#X msg 241 392 58;
#X msg 467 425 69;
#X obj 296 443 makenote 80 500;
#X connect 0 0 22 0;
#X connect 1 0 22 0;
#X connect 2 0 22 0;
#X connect 4 0 3 0;
#X connect 5 0 12 0;
#X connect 6 0 7 0;
#X connect 7 0 12 0;
#X connect 7 1 15 0;
#X connect 7 2 8 0;
#X connect 8 0 9 1;
#X connect 9 0 10 0;
#X connect 9 0 14 0;
#X connect 10 0 11 0;
#X connect 10 0 12 1;
#X connect 12 0 13 0;
#X connect 15 0 9 0;
#X connect 18 0 16 0;
#X connect 19 0 22 0;
#X connect 20 0 22 0;
#X connect 21 0 22 0;
#X connect 22 0 17 0;
#X connect 22 1 17 1;
